<?xml version="1.0" standalone="no"?>
<!DOCTYPE svg PUBLIC "-//W3C//DTD SVG 20010904//EN"
 "http://www.w3.org/TR/2001/REC-SVG-20010904/DTD/svg10.dtd">
<svg version="1.0" xmlns="http://www.w3.org/2000/svg"
 width="904.000000pt" height="406.000000pt" viewBox="0 0 904.000000 406.000000"
 preserveAspectRatio="xMidYMid meet">

<g transform="translate(0.000000,406.000000) scale(0.100000,-0.100000)"
fill="#FFFFFF" stroke="none">
<path d="M220 3740 l0 -46 106 -12 c215 -24 268 -75 294 -282 14 -116 14
-2674 0 -2790 -26 -207 -79 -258 -294 -282 l-106 -12 0 -46 0 -45 640 0 640 0
0 45 0 46 -106 12 c-163 18 -239 61 -268 151 -31 93 -36 218 -36 829 l0 614
288 -5 c307 -5 351 -11 451 -61 61 -31 128 -105 174 -193 48 -92 91 -248 187
-676 45 -199 93 -396 107 -437 94 -277 249 -399 509 -400 204 0 369 92 499
280 l27 39 -28 25 c-16 14 -32 26 -37 26 -4 0 -38 -32 -75 -72 -77 -82 -129
-109 -207 -109 -66 0 -107 20 -145 72 -46 64 -65 125 -166 542 -100 415 -126
502 -175 600 -55 108 -142 202 -244 263 -57 33 -237 90 -333 106 -45 7 -80 14
-78 16 2 1 50 14 107 27 242 55 409 139 579 292 204 183 315 512 266 791 -69
398 -407 657 -941 722 -56 7 -380 12 -863 13 l-772 2 0 -45z m1529 -75 c281
-63 445 -219 520 -495 48 -178 48 -451 0 -640 -61 -236 -201 -385 -434 -459
-127 -41 -215 -51 -497 -58 l-248 -6 0 654 c0 693 5 798 44 884 38 82 88 118
196 139 55 10 347 -3 419 -19z"/>
<path d="M3032 3735 c3 -46 5 -50 34 -56 66 -13 140 -85 215 -208 26 -42 277
-501 558 -1020 l511 -943 0 -372 c0 -368 -9 -558 -29 -634 -29 -107 -104 -155
-273 -174 l-108 -12 0 -46 0 -45 640 0 640 0 0 45 0 46 -106 12 c-224 25 -276
80 -294 314 -5 68 -10 325 -10 571 l0 448 404 807 c223 444 435 858 472 920
82 136 180 240 266 280 58 27 58 27 58 72 l0 45 -480 0 -480 0 0 -46 0 -46 87
-7 c349 -27 435 -184 294 -535 -36 -90 -566 -1158 -673 -1359 l-45 -83 -404
773 c-222 425 -418 802 -436 838 -71 148 -58 258 35 313 43 25 127 47 182 47
81 0 90 6 90 59 l0 46 -575 0 -576 0 3 -50z"/>
<path d="M6240 3740 l0 -46 106 -12 c224 -25 276 -80 294 -314 13 -161 13
-2565 0 -2726 -18 -234 -70 -289 -294 -314 l-106 -12 0 -46 0 -45 1306 0 1307
0 -7 75 c-20 242 -28 491 -22 697 l6 233 -54 0 -54 0 -12 -87 c-74 -548 -199
-727 -548 -788 -115 -21 -554 -30 -731 -17 -114 9 -142 15 -190 39 -48 24 -60
36 -84 83 -18 38 -31 83 -37 140 -5 47 -10 375 -10 729 l0 644 223 -5 c204 -5
228 -8 294 -30 121 -43 201 -126 242 -251 22 -69 34 -133 51 -284 l12 -103 59
0 59 0 -5 43 c-23 206 -36 1010 -20 1265 l8 122 -56 0 c-66 0 -60 11 -83 -160
-18 -136 -39 -209 -90 -311 -41 -82 -82 -125 -154 -158 -54 -25 -61 -26 -297
-29 l-243 -4 0 629 c0 345 5 666 10 713 6 57 19 102 37 140 54 106 150 130
528 130 250 0 466 -14 540 -34 128 -34 229 -114 278 -220 33 -70 70 -218 92
-371 28 -197 18 -175 80 -175 l54 0 -6 223 c-5 197 3 398 23 617 l6 65 -1256
0 -1256 0 0 -45z"/>
</g>
</svg>
